<?xml version="1.0" encoding="UTF-8"?>
<svg width="259.24mm" height="175.11mm" version="1.1" viewBox="0 0 259.24 175.11" xmlns="http://www.w3.org/2000/svg" xmlns:cc="http://creativecommons.org/ns#" xmlns:dc="http://purl.org/dc/elements/1.1/" xmlns:rdf="http://www.w3.org/1999/02/22-rdf-syntax-ns#">
 <metadata>
  <rdf:RDF>
   <cc:Work rdf:about="">
    <dc:format>image/svg+xml</dc:format>
    <dc:type rdf:resource="http://purl.org/dc/dcmitype/StillImage"/>
    <dc:title/>
   </cc:Work>
  </rdf:RDF>
 </metadata>
 <g transform="translate(-22.301 15.791)">
  <path d="m45.015 158.98c-5.5076-1.0002-9.7743-3.5202-12.552-7.4134-2.2413-3.1409-3.0214-5.577-3.8331-11.969-0.70842-5.5794-1.0044-7.2764-3.3079-18.966-1.0896-5.5298-2.2151-10.636-2.501-11.346-0.43832-1.0894-0.51988-1.9311-0.51988-5.3654 0-4.0392 7e-3 -4.0871 0.82996-5.7194 2.5505-5.0585 6.789-9.3701 13.325-13.555 1.3097-0.83852 8.9553-5.9099 16.99-11.27 8.0349-5.3598 15.322-10.105 16.193-10.545 0.87106-0.43971 2.5123-1.0686 3.6473-1.3975 1.916-0.55532 2.5742-0.59807 9.2073-0.59807 6.9497 0 13.735 0.47863 13.568 0.95711-0.04107 0.11799-9.2425 7.2524-20.448 15.854-11.205 8.6019-20.544 15.807-20.754 16.01-0.20962 0.20387-0.28907 0.46281-0.17656 0.57541 0.11251 0.11261 10.285 0.26427 22.606 0.33703l22.402 0.13229 1.1242 0.60054c0.6183 0.3303 1.433 1.0673 1.8105 1.6377 0.3775 0.57044 1.8769 4.3483 3.332 8.3953 6.9614 19.361 6.4314 18.084 7.9903 19.248 0.72989 0.54494 0.76969 0.54551 38.13 0.54551h37.4l0.747-0.55349c1.0773-0.79824 1.8225-2.0049 2.4854-4.0246 0.31985-0.97453 1.6243-4.5698 2.8988-7.9896s2.7612-7.6464 3.3039-9.3927c1.5828-5.0936 2.5203-6.5877 4.8514-7.7325l1.4949-0.73414 6.4823 0.03871c3.5653 0.0213 13.407-0.0226 21.872-0.09753 14.097-0.12479 15.399-0.17342 15.505-0.57901 0.0858-0.32821-5.2413-4.5648-20.59-16.375-15.839-12.187-20.677-16.04-20.585-16.393 0.11157-0.42606 0.84189-0.46676 9.5659-0.53308 14.839-0.11281 15.573 0.10478 25.717 7.6221 3.7115 2.7505 9.418 6.6077 22.854 15.448 4.9155 3.2341 8.551 5.8212 9.6121 6.8401 4.1853 4.019 6.2435 9.302 5.7863 14.853-0.0948 1.1514-0.76677 5.14-1.4932 8.8635-0.72644 3.7235-2.2693 12.128-3.4285 18.676-1.1592 6.5484-2.3574 12.74-2.6625 13.758-1.8024 6.0175-5.9722 10.111-12.068 11.848l-2.0639 0.5879-106.36 0.0437c-89.776 0.0369-106.68-0.0136-108.39-0.32393z" stroke-width=".26458"/>
  <path d="m135.22 72.822-0.41125-45.514h-14.312c-7.8714 0-14.307-0.11104-14.301-0.24675 6e-3 -0.13571 0.98097-1.1351 2.1673-2.2208 7.4951-7.3281 15.519-14.313 22.227-20.892 3.1268-3.0953 6.8657-6.3176 9.4829-8.8831 3.1284-3.1759 6.8874-6.3635 9.5833-8.9654 1.0761-1.0405 2.096-1.8918 2.2663-1.8918 0.1704 0 1.3309 0.99935 2.579 2.2208 3.1467 2.9444 6.7086 6.1338 9.2597 8.6364 3.646 3.2614 6.9926 6.4335 9.9891 9.3766 2.2983 2.2619 4.252 4.1126 4.3416 4.1126 0.0895 0 0.81174 0.62922 1.6048 1.3983l17.952 17.164c0 0.10526-6.4403 0.19138-14.312 0.19138h-14.312l-0.52043 45.532-33.285-0.01816z" fill="#030303" stroke-width=".329"/>
 </g>
</svg>
